<svg width="300" height="64" viewBox="0 0 300 64" fill="none" xmlns="http://www.w3.org/2000/svg">
<path fill-rule="evenodd" clip-rule="evenodd" d="M51.9876 41.3016C48.48 48.8257 40.849 54.0405 31.9999 54.0405C19.8272 54.0405 9.95917 44.1726 9.95917 31.9998C9.95917 19.827 19.8272 9.95898 31.9999 9.95898C40.8802 9.95898 48.5338 15.2107 52.0245 22.7776C50.9779 23.8929 50.1391 25.1687 49.508 26.605C48.8058 28.2601 48.4547 30.0782 48.4547 32.0594C48.4547 34.0405 48.8058 35.8586 49.508 37.5137C50.1316 38.9331 50.9582 40.1957 51.9876 41.3016ZM33.9113 45.6474C31.8801 45.6474 29.9867 45.3214 28.2313 44.6693C26.5009 43.9922 24.9963 43.0393 23.7173 41.8105C22.4384 40.5817 21.4353 39.1397 20.708 37.4846C20.0059 35.8295 19.6548 34.0114 19.6548 32.0303C19.6548 30.0491 20.0059 28.231 20.708 26.5759C21.4353 24.9208 22.4384 23.4788 23.7173 22.25C25.0214 21.0212 26.5385 20.0808 28.2689 19.4288C29.9992 18.7517 31.8926 18.4132 33.949 18.4132C36.231 18.4132 38.2874 18.8144 40.118 19.6169C41.9738 20.3943 43.5286 21.5479 44.7824 23.0776L40.8703 26.6888C39.9676 25.6606 38.9645 24.8957 37.861 24.3942C36.7576 23.8675 35.5539 23.6042 34.2499 23.6042C33.0211 23.6042 31.8926 23.8048 30.8644 24.2061C29.8362 24.6073 28.946 25.1841 28.1937 25.9364C27.4413 26.6888 26.852 27.579 26.4257 28.6072C26.0245 29.6354 25.8238 30.7764 25.8238 32.0303C25.8238 33.2841 26.0245 34.4252 26.4257 35.4534C26.852 36.4815 27.4413 37.3718 28.1937 38.1241C28.946 38.8764 29.8362 39.4532 30.8644 39.8545C31.8926 40.2557 33.0211 40.4563 34.2499 40.4563C35.5539 40.4563 36.7576 40.2055 37.861 39.704C38.9645 39.1774 39.9676 38.3874 40.8703 37.3342L44.7824 40.9453C43.5286 42.4751 41.9738 43.6412 40.118 44.4436C38.2874 45.2461 36.2185 45.6474 33.9113 45.6474Z" fill="#007DFC"/>
<path fill-rule="evenodd" clip-rule="evenodd" d="M4.08165 31.9992C4.08165 16.5803 16.5811 4.08086 32 4.08086C43.0159 4.08086 52.5417 10.461 57.0837 19.7276C57.2728 19.6471 57.4645 19.5702 57.659 19.4969C58.3815 19.2142 59.1325 18.9905 59.9118 18.8258C54.9699 8.37321 44.3294 1.14209 32 1.14209C14.9581 1.14209 1.14288 14.9573 1.14288 31.9992C1.14288 49.0411 14.9581 62.8563 32 62.8563C44.2522 62.8563 54.8366 55.7154 59.8184 45.3684C59.0635 45.2114 58.3312 45.0011 57.6214 44.7374C57.4056 44.653 57.1932 44.5642 56.9844 44.4712C52.4039 53.6293 42.9363 59.9175 32 59.9175C16.5811 59.9175 4.08165 47.418 4.08165 31.9992ZM58.9594 39.2799C59.3636 39.5291 59.7953 39.7433 60.2545 39.9225C60.7208 40.1045 61.2077 40.2452 61.7153 40.3447C62.4592 37.6903 62.8571 34.8912 62.8571 31.9992C62.8571 29.1755 62.4778 26.4404 61.7674 23.842C61.241 23.9419 60.7367 24.086 60.2545 24.2742C59.8124 24.4467 59.3959 24.6516 59.0048 24.8891C59.6009 27.1591 59.9183 29.5421 59.9183 31.9992C59.9183 34.5179 59.5848 36.9587 58.9594 39.2799Z" fill="black"/>
<path fill-rule="evenodd" clip-rule="evenodd" d="M5.22462 32C5.22462 17.2124 17.2124 5.22462 32 5.22462C42.5601 5.22462 51.6923 11.3379 56.0508 20.2184C56.5647 19.948 57.1007 19.7077 57.659 19.4973C58.7361 19.0758 59.8765 18.7855 61.08 18.6264C56.0153 7.63187 44.8989 0 32 0C14.3269 0 0 14.3269 0 32C0 49.6731 14.3269 64 32 64C44.823 64 55.8844 56.4577 60.9899 45.5674C59.8157 45.4123 58.6928 45.1358 57.6214 44.7378C57.0422 44.5112 56.4883 44.2537 55.9598 43.9652C51.5661 52.7463 42.4871 58.7754 32 58.7754C17.2124 58.7754 5.22462 46.7877 5.22462 32ZM57.9682 38.5513C58.6342 39.1308 59.3963 39.588 60.2545 39.9229C61.0612 40.2377 61.9296 40.429 62.8597 40.4969C63.6031 37.7911 64 34.9419 64 32C64 29.1283 63.6218 26.3449 62.9123 23.697C61.9623 23.7613 61.0763 23.9539 60.2545 24.2746C59.4136 24.6027 58.6649 25.0483 58.0085 25.6114C58.5097 27.6586 58.7754 29.7983 58.7754 32C58.7754 34.2601 58.4954 36.4548 57.9682 38.5513Z" fill="black"/>
<path d="M86.032 35.788C84.736 35.788 83.528 35.58 82.408 35.164C81.304 34.732 80.344 34.124 79.528 33.34C78.712 32.556 78.072 31.636 77.608 30.58C77.16 29.524 76.936 28.364 76.936 27.1C76.936 25.836 77.16 24.676 77.608 23.62C78.072 22.564 78.712 21.644 79.528 20.86C80.36 20.076 81.328 19.476 82.432 19.06C83.536 18.628 84.744 18.412 86.056 18.412C87.512 18.412 88.824 18.668 89.992 19.18C91.176 19.676 92.168 20.412 92.968 21.388L90.472 23.692C89.896 23.036 89.256 22.548 88.552 22.228C87.848 21.892 87.08 21.724 86.248 21.724C85.464 21.724 84.744 21.852 84.088 22.108C83.432 22.364 82.864 22.732 82.384 23.212C81.904 23.692 81.528 24.26 81.256 24.916C81 25.572 80.872 26.3 80.872 27.1C80.872 27.9 81 28.628 81.256 29.284C81.528 29.94 81.904 30.508 82.384 30.988C82.864 31.468 83.432 31.836 84.088 32.092C84.744 32.348 85.464 32.476 86.248 32.476C87.08 32.476 87.848 32.316 88.552 31.996C89.256 31.66 89.896 31.156 90.472 30.484L92.968 32.788C92.168 33.764 91.176 34.508 89.992 35.02C88.824 35.532 87.504 35.788 86.032 35.788ZM103.402 35.788C102.074 35.788 100.842 35.572 99.706 35.14C98.586 34.708 97.61 34.1 96.778 33.316C95.962 32.532 95.322 31.612 94.858 30.556C94.41 29.5 94.186 28.348 94.186 27.1C94.186 25.852 94.41 24.7 94.858 23.644C95.322 22.588 95.97 21.668 96.802 20.884C97.634 20.1 98.61 19.492 99.73 19.06C100.85 18.628 102.066 18.412 103.378 18.412C104.706 18.412 105.922 18.628 107.026 19.06C108.146 19.492 109.114 20.1 109.93 20.884C110.762 21.668 111.41 22.588 111.874 23.644C112.338 24.684 112.57 25.836 112.57 27.1C112.57 28.348 112.338 29.508 111.874 30.58C111.41 31.636 110.762 32.556 109.93 33.34C109.114 34.108 108.146 34.708 107.026 35.14C105.922 35.572 104.714 35.788 103.402 35.788ZM103.378 32.476C104.13 32.476 104.818 32.348 105.442 32.092C106.082 31.836 106.642 31.468 107.122 30.988C107.602 30.508 107.97 29.94 108.226 29.284C108.498 28.628 108.634 27.9 108.634 27.1C108.634 26.3 108.498 25.572 108.226 24.916C107.97 24.26 107.602 23.692 107.122 23.212C106.658 22.732 106.106 22.364 105.466 22.108C104.826 21.852 104.13 21.724 103.378 21.724C102.626 21.724 101.93 21.852 101.29 22.108C100.666 22.364 100.114 22.732 99.634 23.212C99.154 23.692 98.778 24.26 98.506 24.916C98.25 25.572 98.122 26.3 98.122 27.1C98.122 27.884 98.25 28.612 98.506 29.284C98.778 29.94 99.146 30.508 99.61 30.988C100.09 31.468 100.65 31.836 101.29 32.092C101.93 32.348 102.626 32.476 103.378 32.476ZM115.492 35.5V18.7H118.708L125.86 30.556H124.156L131.188 18.7H134.38L134.428 35.5H130.78L130.756 24.292H131.428L125.812 33.724H124.06L118.324 24.292H119.14V35.5H115.492ZM138.414 35.5V18.7H141.63L148.782 30.556H147.078L154.11 18.7H157.302L157.35 35.5H153.702L153.678 24.292H154.35L148.734 33.724H146.982L141.246 24.292H142.062V35.5H138.414ZM164.912 25.468H173V28.492H164.912V25.468ZM165.2 32.38H174.344V35.5H161.336V18.7H174.032V21.82H165.2V32.38ZM177.437 35.5V18.7H184.709C186.213 18.7 187.509 18.948 188.597 19.444C189.685 19.924 190.525 20.62 191.117 21.532C191.709 22.444 192.005 23.532 192.005 24.796C192.005 26.044 191.709 27.124 191.117 28.036C190.525 28.932 189.685 29.62 188.597 30.1C187.509 30.58 186.213 30.82 184.709 30.82H179.597L181.325 29.116V35.5H177.437ZM188.117 35.5L183.917 29.404H188.069L192.317 35.5H188.117ZM181.325 29.548L179.597 27.724H184.493C185.693 27.724 186.589 27.468 187.181 26.956C187.773 26.428 188.069 25.708 188.069 24.796C188.069 23.868 187.773 23.148 187.181 22.636C186.589 22.124 185.693 21.868 184.493 21.868H179.597L181.325 20.02V29.548ZM203.126 35.788C201.83 35.788 200.622 35.58 199.502 35.164C198.398 34.732 197.438 34.124 196.622 33.34C195.806 32.556 195.166 31.636 194.702 30.58C194.254 29.524 194.03 28.364 194.03 27.1C194.03 25.836 194.254 24.676 194.702 23.62C195.166 22.564 195.806 21.644 196.622 20.86C197.454 20.076 198.422 19.476 199.526 19.06C200.63 18.628 201.838 18.412 203.15 18.412C204.606 18.412 205.918 18.668 207.086 19.18C208.27 19.676 209.262 20.412 210.062 21.388L207.566 23.692C206.99 23.036 206.35 22.548 205.646 22.228C204.942 21.892 204.174 21.724 203.342 21.724C202.558 21.724 201.838 21.852 201.182 22.108C200.526 22.364 199.958 22.732 199.478 23.212C198.998 23.692 198.622 24.26 198.35 24.916C198.094 25.572 197.966 26.3 197.966 27.1C197.966 27.9 198.094 28.628 198.35 29.284C198.622 29.94 198.998 30.508 199.478 30.988C199.958 31.468 200.526 31.836 201.182 32.092C201.838 32.348 202.558 32.476 203.342 32.476C204.174 32.476 204.942 32.316 205.646 31.996C206.35 31.66 206.99 31.156 207.566 30.484L210.062 32.788C209.262 33.764 208.27 34.508 207.086 35.02C205.918 35.532 204.598 35.788 203.126 35.788ZM216.263 25.468H224.351V28.492H216.263V25.468ZM216.551 32.38H225.695V35.5H212.687V18.7H225.383V21.82H216.551V32.38ZM240.309 18.7H244.197V35.5H240.309V18.7ZM232.677 35.5H228.789V18.7H232.677V35.5ZM240.597 28.612H232.389V25.324H240.597V28.612ZM256.332 35.788C255.004 35.788 253.772 35.572 252.636 35.14C251.516 34.708 250.54 34.1 249.708 33.316C248.892 32.532 248.252 31.612 247.788 30.556C247.34 29.5 247.116 28.348 247.116 27.1C247.116 25.852 247.34 24.7 247.788 23.644C248.252 22.588 248.9 21.668 249.732 20.884C250.564 20.1 251.54 19.492 252.66 19.06C253.78 18.628 254.996 18.412 256.308 18.412C257.636 18.412 258.852 18.628 259.956 19.06C261.076 19.492 262.044 20.1 262.86 20.884C263.692 21.668 264.34 22.588 264.804 23.644C265.268 24.684 265.5 25.836 265.5 27.1C265.5 28.348 265.268 29.508 264.804 30.58C264.34 31.636 263.692 32.556 262.86 33.34C262.044 34.108 261.076 34.708 259.956 35.14C258.852 35.572 257.644 35.788 256.332 35.788ZM256.308 32.476C257.06 32.476 257.748 32.348 258.372 32.092C259.012 31.836 259.572 31.468 260.052 30.988C260.532 30.508 260.9 29.94 261.156 29.284C261.428 28.628 261.564 27.9 261.564 27.1C261.564 26.3 261.428 25.572 261.156 24.916C260.9 24.26 260.532 23.692 260.052 23.212C259.588 22.732 259.036 22.364 258.396 22.108C257.756 21.852 257.06 21.724 256.308 21.724C255.556 21.724 254.86 21.852 254.22 22.108C253.596 22.364 253.044 22.732 252.564 23.212C252.084 23.692 251.708 24.26 251.436 24.916C251.18 25.572 251.052 26.3 251.052 27.1C251.052 27.884 251.18 28.612 251.436 29.284C251.708 29.94 252.076 30.508 252.54 30.988C253.02 31.468 253.58 31.836 254.22 32.092C254.86 32.348 255.556 32.476 256.308 32.476ZM268.422 35.5V18.7H275.694C277.198 18.7 278.494 18.948 279.582 19.444C280.67 19.924 281.51 20.62 282.102 21.532C282.694 22.444 282.99 23.532 282.99 24.796C282.99 26.044 282.694 27.124 282.102 28.036C281.51 28.948 280.67 29.652 279.582 30.148C278.494 30.628 277.198 30.868 275.694 30.868H270.582L272.31 29.116V35.5H268.422ZM272.31 29.548L270.582 27.7H275.478C276.678 27.7 277.574 27.444 278.166 26.932C278.758 26.42 279.054 25.708 279.054 24.796C279.054 23.868 278.758 23.148 278.166 22.636C277.574 22.124 276.678 21.868 275.478 21.868H270.582L272.31 20.02V29.548ZM289.341 25.468H297.429V28.492H289.341V25.468ZM289.629 32.38H298.773V35.5H285.765V18.7H298.461V21.82H289.629V32.38Z" fill="#292D34"/>
<path d="M77.26 50.5V42.1H80.536C81.272 42.1 81.9 42.216 82.42 42.448C82.94 42.68 83.34 43.016 83.62 43.456C83.9 43.896 84.04 44.42 84.04 45.028C84.04 45.636 83.9 46.16 83.62 46.6C83.34 47.032 82.94 47.368 82.42 47.608C81.9 47.84 81.272 47.956 80.536 47.956H77.92L78.46 47.392V50.5H77.26ZM78.46 47.512L77.92 46.912H80.5C81.268 46.912 81.848 46.748 82.24 46.42C82.64 46.092 82.84 45.628 82.84 45.028C82.84 44.428 82.64 43.964 82.24 43.636C81.848 43.308 81.268 43.144 80.5 43.144H77.92L78.46 42.544V47.512ZM88.3356 50.572C87.6956 50.572 87.1276 50.432 86.6316 50.152C86.1356 49.872 85.7436 49.488 85.4556 49C85.1676 48.504 85.0236 47.944 85.0236 47.32C85.0236 46.688 85.1676 46.128 85.4556 45.64C85.7436 45.152 86.1356 44.772 86.6316 44.5C87.1276 44.22 87.6956 44.08 88.3356 44.08C88.9676 44.08 89.5316 44.22 90.0276 44.5C90.5316 44.772 90.9236 45.152 91.2036 45.64C91.4916 46.12 91.6356 46.68 91.6356 47.32C91.6356 47.952 91.4916 48.512 91.2036 49C90.9236 49.488 90.5316 49.872 90.0276 50.152C89.5316 50.432 88.9676 50.572 88.3356 50.572ZM88.3356 49.564C88.7436 49.564 89.1076 49.472 89.4276 49.288C89.7556 49.104 90.0116 48.844 90.1956 48.508C90.3796 48.164 90.4716 47.768 90.4716 47.32C90.4716 46.864 90.3796 46.472 90.1956 46.144C90.0116 45.808 89.7556 45.548 89.4276 45.364C89.1076 45.18 88.7436 45.088 88.3356 45.088C87.9276 45.088 87.5636 45.18 87.2436 45.364C86.9236 45.548 86.6676 45.808 86.4756 46.144C86.2836 46.472 86.1876 46.864 86.1876 47.32C86.1876 47.768 86.2836 48.164 86.4756 48.508C86.6676 48.844 86.9236 49.104 87.2436 49.288C87.5636 49.472 87.9276 49.564 88.3356 49.564ZM94.397 50.5L92.033 44.14H93.125L95.225 49.9H94.709L96.893 44.14H97.865L100.001 49.9H99.497L101.645 44.14H102.677L100.301 50.5H99.197L97.193 45.244H97.529L95.501 50.5H94.397ZM106.502 50.572C105.822 50.572 105.222 50.432 104.702 50.152C104.19 49.872 103.79 49.488 103.502 49C103.222 48.512 103.082 47.952 103.082 47.32C103.082 46.688 103.218 46.128 103.49 45.64C103.77 45.152 104.15 44.772 104.63 44.5C105.118 44.22 105.666 44.08 106.274 44.08C106.89 44.08 107.434 44.216 107.906 44.488C108.378 44.76 108.746 45.144 109.01 45.64C109.282 46.128 109.418 46.7 109.418 47.356C109.418 47.404 109.414 47.46 109.406 47.524C109.406 47.588 109.402 47.648 109.394 47.704H103.982V46.876H108.794L108.326 47.164C108.334 46.756 108.25 46.392 108.074 46.072C107.898 45.752 107.654 45.504 107.342 45.328C107.038 45.144 106.682 45.052 106.274 45.052C105.874 45.052 105.518 45.144 105.206 45.328C104.894 45.504 104.65 45.756 104.474 46.084C104.298 46.404 104.21 46.772 104.21 47.188V47.38C104.21 47.804 104.306 48.184 104.498 48.52C104.698 48.848 104.974 49.104 105.326 49.288C105.678 49.472 106.082 49.564 106.538 49.564C106.914 49.564 107.254 49.5 107.558 49.372C107.87 49.244 108.142 49.052 108.374 48.796L109.01 49.54C108.722 49.876 108.362 50.132 107.93 50.308C107.506 50.484 107.03 50.572 106.502 50.572ZM111.018 50.5V44.14H112.122V45.868L112.014 45.436C112.19 44.996 112.486 44.66 112.902 44.428C113.318 44.196 113.83 44.08 114.438 44.08V45.196C114.39 45.188 114.342 45.184 114.294 45.184C114.254 45.184 114.214 45.184 114.174 45.184C113.558 45.184 113.07 45.368 112.71 45.736C112.35 46.104 112.17 46.636 112.17 47.332V50.5H111.018ZM115.858 50.5V44.14H117.01V50.5H115.858ZM116.434 42.916C116.21 42.916 116.022 42.844 115.87 42.7C115.726 42.556 115.654 42.38 115.654 42.172C115.654 41.956 115.726 41.776 115.87 41.632C116.022 41.488 116.21 41.416 116.434 41.416C116.658 41.416 116.842 41.488 116.986 41.632C117.138 41.768 117.214 41.94 117.214 42.148C117.214 42.364 117.142 42.548 116.998 42.7C116.854 42.844 116.666 42.916 116.434 42.916ZM122.605 44.08C123.125 44.08 123.581 44.18 123.973 44.38C124.373 44.58 124.685 44.884 124.909 45.292C125.133 45.7 125.245 46.216 125.245 46.84V50.5H124.093V46.972C124.093 46.356 123.941 45.892 123.637 45.58C123.341 45.268 122.921 45.112 122.377 45.112C121.969 45.112 121.613 45.192 121.309 45.352C121.005 45.512 120.769 45.748 120.601 46.06C120.441 46.372 120.361 46.76 120.361 47.224V50.5H119.209V44.14H120.313V45.856L120.133 45.4C120.341 44.984 120.661 44.66 121.093 44.428C121.525 44.196 122.029 44.08 122.605 44.08ZM130.161 52.9C129.577 52.9 129.009 52.816 128.457 52.648C127.913 52.488 127.469 52.256 127.125 51.952L127.677 51.064C127.973 51.32 128.337 51.52 128.769 51.664C129.201 51.816 129.653 51.892 130.125 51.892C130.877 51.892 131.429 51.716 131.781 51.364C132.133 51.012 132.309 50.476 132.309 49.756V48.412L132.429 47.152L132.369 45.88V44.14H133.461V49.636C133.461 50.756 133.181 51.58 132.621 52.108C132.061 52.636 131.241 52.9 130.161 52.9ZM130.017 50.236C129.401 50.236 128.849 50.108 128.361 49.852C127.881 49.588 127.497 49.224 127.209 48.76C126.929 48.296 126.789 47.76 126.789 47.152C126.789 46.536 126.929 46 127.209 45.544C127.497 45.08 127.881 44.72 128.361 44.464C128.849 44.208 129.401 44.08 130.017 44.08C130.561 44.08 131.057 44.192 131.505 44.416C131.953 44.632 132.309 44.968 132.573 45.424C132.845 45.88 132.981 46.456 132.981 47.152C132.981 47.84 132.845 48.412 132.573 48.868C132.309 49.324 131.953 49.668 131.505 49.9C131.057 50.124 130.561 50.236 130.017 50.236ZM130.149 49.228C130.573 49.228 130.949 49.14 131.277 48.964C131.605 48.788 131.861 48.544 132.045 48.232C132.237 47.92 132.333 47.56 132.333 47.152C132.333 46.744 132.237 46.384 132.045 46.072C131.861 45.76 131.605 45.52 131.277 45.352C130.949 45.176 130.573 45.088 130.149 45.088C129.725 45.088 129.345 45.176 129.009 45.352C128.681 45.52 128.421 45.76 128.229 46.072C128.045 46.384 127.953 46.744 127.953 47.152C127.953 47.56 128.045 47.92 128.229 48.232C128.421 48.544 128.681 48.788 129.009 48.964C129.345 49.14 129.725 49.228 130.149 49.228ZM141.081 50.5V47.284L141.357 48.028L137.745 42.1H139.029L142.065 47.104H141.369L144.417 42.1H145.605L142.005 48.028L142.269 47.284V50.5H141.081ZM148.664 50.572C148.024 50.572 147.456 50.432 146.96 50.152C146.464 49.872 146.072 49.488 145.784 49C145.496 48.504 145.352 47.944 145.352 47.32C145.352 46.688 145.496 46.128 145.784 45.64C146.072 45.152 146.464 44.772 146.96 44.5C147.456 44.22 148.024 44.08 148.664 44.08C149.296 44.08 149.86 44.22 150.356 44.5C150.86 44.772 151.252 45.152 151.532 45.64C151.82 46.12 151.964 46.68 151.964 47.32C151.964 47.952 151.82 48.512 151.532 49C151.252 49.488 150.86 49.872 150.356 50.152C149.86 50.432 149.296 50.572 148.664 50.572ZM148.664 49.564C149.072 49.564 149.436 49.472 149.756 49.288C150.084 49.104 150.34 48.844 150.524 48.508C150.708 48.164 150.8 47.768 150.8 47.32C150.8 46.864 150.708 46.472 150.524 46.144C150.34 45.808 150.084 45.548 149.756 45.364C149.436 45.18 149.072 45.088 148.664 45.088C148.256 45.088 147.892 45.18 147.572 45.364C147.252 45.548 146.996 45.808 146.804 46.144C146.612 46.472 146.516 46.864 146.516 47.32C146.516 47.768 146.612 48.164 146.804 48.508C146.996 48.844 147.252 49.104 147.572 49.288C147.892 49.472 148.256 49.564 148.664 49.564ZM156.233 50.572C155.689 50.572 155.209 50.472 154.793 50.272C154.385 50.072 154.065 49.768 153.833 49.36C153.609 48.944 153.497 48.424 153.497 47.8V44.14H154.649V47.668C154.649 48.292 154.797 48.76 155.093 49.072C155.397 49.384 155.821 49.54 156.365 49.54C156.765 49.54 157.113 49.46 157.409 49.3C157.705 49.132 157.933 48.892 158.093 48.58C158.253 48.26 158.333 47.876 158.333 47.428V44.14H159.485V50.5H158.393V48.784L158.573 49.24C158.365 49.664 158.053 49.992 157.637 50.224C157.221 50.456 156.753 50.572 156.233 50.572ZM161.678 50.5V44.14H162.782V45.868L162.674 45.436C162.85 44.996 163.146 44.66 163.562 44.428C163.978 44.196 164.49 44.08 165.098 44.08V45.196C165.05 45.188 165.002 45.184 164.954 45.184C164.914 45.184 164.874 45.184 164.834 45.184C164.218 45.184 163.73 45.368 163.37 45.736C163.01 46.104 162.83 46.636 162.83 47.332V50.5H161.678ZM171.082 45.724H175.402V46.744H171.082V45.724ZM171.19 49.456H176.086V50.5H169.99V42.1H175.918V43.144H171.19V49.456ZM177.219 47.704V46.708H180.447V47.704H177.219ZM185.11 50.572C184.462 50.572 183.882 50.432 183.37 50.152C182.866 49.872 182.47 49.488 182.182 49C181.894 48.512 181.75 47.952 181.75 47.32C181.75 46.688 181.894 46.128 182.182 45.64C182.47 45.152 182.866 44.772 183.37 44.5C183.882 44.22 184.462 44.08 185.11 44.08C185.686 44.08 186.198 44.196 186.646 44.428C187.102 44.652 187.454 44.988 187.702 45.436L186.826 46C186.618 45.688 186.362 45.46 186.058 45.316C185.762 45.164 185.442 45.088 185.098 45.088C184.682 45.088 184.31 45.18 183.982 45.364C183.654 45.548 183.394 45.808 183.202 46.144C183.01 46.472 182.914 46.864 182.914 47.32C182.914 47.776 183.01 48.172 183.202 48.508C183.394 48.844 183.654 49.104 183.982 49.288C184.31 49.472 184.682 49.564 185.098 49.564C185.442 49.564 185.762 49.492 186.058 49.348C186.362 49.196 186.618 48.964 186.826 48.652L187.702 49.204C187.454 49.644 187.102 49.984 186.646 50.224C186.198 50.456 185.686 50.572 185.11 50.572ZM191.824 50.572C191.184 50.572 190.616 50.432 190.12 50.152C189.624 49.872 189.232 49.488 188.944 49C188.656 48.504 188.512 47.944 188.512 47.32C188.512 46.688 188.656 46.128 188.944 45.64C189.232 45.152 189.624 44.772 190.12 44.5C190.616 44.22 191.184 44.08 191.824 44.08C192.456 44.08 193.02 44.22 193.516 44.5C194.02 44.772 194.412 45.152 194.692 45.64C194.98 46.12 195.124 46.68 195.124 47.32C195.124 47.952 194.98 48.512 194.692 49C194.412 49.488 194.02 49.872 193.516 50.152C193.02 50.432 192.456 50.572 191.824 50.572ZM191.824 49.564C192.232 49.564 192.596 49.472 192.916 49.288C193.244 49.104 193.5 48.844 193.684 48.508C193.868 48.164 193.96 47.768 193.96 47.32C193.96 46.864 193.868 46.472 193.684 46.144C193.5 45.808 193.244 45.548 192.916 45.364C192.596 45.18 192.232 45.088 191.824 45.088C191.416 45.088 191.052 45.18 190.732 45.364C190.412 45.548 190.156 45.808 189.964 46.144C189.772 46.472 189.676 46.864 189.676 47.32C189.676 47.768 189.772 48.164 189.964 48.508C190.156 48.844 190.412 49.104 190.732 49.288C191.052 49.472 191.416 49.564 191.824 49.564ZM204.673 44.08C205.185 44.08 205.637 44.18 206.029 44.38C206.421 44.58 206.725 44.884 206.941 45.292C207.165 45.7 207.277 46.216 207.277 46.84V50.5H206.125V46.972C206.125 46.356 205.981 45.892 205.693 45.58C205.405 45.268 205.001 45.112 204.481 45.112C204.097 45.112 203.761 45.192 203.473 45.352C203.185 45.512 202.961 45.748 202.801 46.06C202.649 46.372 202.573 46.76 202.573 47.224V50.5H201.421V46.972C201.421 46.356 201.277 45.892 200.989 45.58C200.709 45.268 200.305 45.112 199.777 45.112C199.401 45.112 199.069 45.192 198.781 45.352C198.493 45.512 198.269 45.748 198.109 46.06C197.949 46.372 197.869 46.76 197.869 47.224V50.5H196.717V44.14H197.821V45.832L197.641 45.4C197.841 44.984 198.149 44.66 198.565 44.428C198.981 44.196 199.465 44.08 200.017 44.08C200.625 44.08 201.149 44.232 201.589 44.536C202.029 44.832 202.317 45.284 202.453 45.892L201.985 45.7C202.177 45.212 202.513 44.82 202.993 44.524C203.473 44.228 204.033 44.08 204.673 44.08ZM217.353 44.08C217.865 44.08 218.317 44.18 218.709 44.38C219.101 44.58 219.405 44.884 219.621 45.292C219.845 45.7 219.957 46.216 219.957 46.84V50.5H218.805V46.972C218.805 46.356 218.661 45.892 218.373 45.58C218.085 45.268 217.681 45.112 217.161 45.112C216.777 45.112 216.441 45.192 216.153 45.352C215.865 45.512 215.641 45.748 215.481 46.06C215.329 46.372 215.253 46.76 215.253 47.224V50.5H214.101V46.972C214.101 46.356 213.957 45.892 213.669 45.58C213.389 45.268 212.985 45.112 212.457 45.112C212.081 45.112 211.749 45.192 211.461 45.352C211.173 45.512 210.949 45.748 210.789 46.06C210.629 46.372 210.549 46.76 210.549 47.224V50.5H209.397V44.14H210.501V45.832L210.321 45.4C210.521 44.984 210.829 44.66 211.245 44.428C211.661 44.196 212.145 44.08 212.697 44.08C213.305 44.08 213.829 44.232 214.269 44.536C214.709 44.832 214.997 45.284 215.133 45.892L214.665 45.7C214.857 45.212 215.193 44.82 215.673 44.524C216.153 44.228 216.713 44.08 217.353 44.08ZM224.908 50.572C224.228 50.572 223.628 50.432 223.108 50.152C222.596 49.872 222.196 49.488 221.908 49C221.628 48.512 221.488 47.952 221.488 47.32C221.488 46.688 221.624 46.128 221.896 45.64C222.176 45.152 222.556 44.772 223.036 44.5C223.524 44.22 224.072 44.08 224.68 44.08C225.296 44.08 225.84 44.216 226.312 44.488C226.784 44.76 227.152 45.144 227.416 45.64C227.688 46.128 227.824 46.7 227.824 47.356C227.824 47.404 227.82 47.46 227.812 47.524C227.812 47.588 227.808 47.648 227.8 47.704H222.388V46.876H227.2L226.732 47.164C226.74 46.756 226.656 46.392 226.48 46.072C226.304 45.752 226.06 45.504 225.748 45.328C225.444 45.144 225.088 45.052 224.68 45.052C224.28 45.052 223.924 45.144 223.612 45.328C223.3 45.504 223.056 45.756 222.88 46.084C222.704 46.404 222.616 46.772 222.616 47.188V47.38C222.616 47.804 222.712 48.184 222.904 48.52C223.104 48.848 223.38 49.104 223.732 49.288C224.084 49.472 224.488 49.564 224.944 49.564C225.32 49.564 225.66 49.5 225.964 49.372C226.276 49.244 226.548 49.052 226.78 48.796L227.416 49.54C227.128 49.876 226.768 50.132 226.336 50.308C225.912 50.484 225.436 50.572 224.908 50.572ZM229.424 50.5V44.14H230.528V45.868L230.42 45.436C230.596 44.996 230.892 44.66 231.308 44.428C231.724 44.196 232.236 44.08 232.844 44.08V45.196C232.796 45.188 232.748 45.184 232.7 45.184C232.66 45.184 232.62 45.184 232.58 45.184C231.964 45.184 231.476 45.368 231.116 45.736C230.756 46.104 230.576 46.636 230.576 47.332V50.5H229.424ZM236.977 50.572C236.329 50.572 235.749 50.432 235.237 50.152C234.733 49.872 234.337 49.488 234.049 49C233.761 48.512 233.617 47.952 233.617 47.32C233.617 46.688 233.761 46.128 234.049 45.64C234.337 45.152 234.733 44.772 235.237 44.5C235.749 44.22 236.329 44.08 236.977 44.08C237.553 44.08 238.065 44.196 238.513 44.428C238.969 44.652 239.321 44.988 239.569 45.436L238.693 46C238.485 45.688 238.229 45.46 237.925 45.316C237.629 45.164 237.309 45.088 236.965 45.088C236.549 45.088 236.177 45.18 235.849 45.364C235.521 45.548 235.261 45.808 235.069 46.144C234.877 46.472 234.781 46.864 234.781 47.32C234.781 47.776 234.877 48.172 235.069 48.508C235.261 48.844 235.521 49.104 235.849 49.288C236.177 49.472 236.549 49.564 236.965 49.564C237.309 49.564 237.629 49.492 237.925 49.348C238.229 49.196 238.485 48.964 238.693 48.652L239.569 49.204C239.321 49.644 238.969 49.984 238.513 50.224C238.065 50.456 237.553 50.572 236.977 50.572ZM243.799 50.572C243.119 50.572 242.519 50.432 241.999 50.152C241.487 49.872 241.087 49.488 240.799 49C240.519 48.512 240.379 47.952 240.379 47.32C240.379 46.688 240.515 46.128 240.787 45.64C241.067 45.152 241.447 44.772 241.927 44.5C242.415 44.22 242.963 44.08 243.571 44.08C244.187 44.08 244.731 44.216 245.203 44.488C245.675 44.76 246.043 45.144 246.307 45.64C246.579 46.128 246.715 46.7 246.715 47.356C246.715 47.404 246.711 47.46 246.703 47.524C246.703 47.588 246.699 47.648 246.691 47.704H241.279V46.876H246.091L245.623 47.164C245.631 46.756 245.547 46.392 245.371 46.072C245.195 45.752 244.951 45.504 244.639 45.328C244.335 45.144 243.979 45.052 243.571 45.052C243.171 45.052 242.815 45.144 242.503 45.328C242.191 45.504 241.947 45.756 241.771 46.084C241.595 46.404 241.507 46.772 241.507 47.188V47.38C241.507 47.804 241.603 48.184 241.795 48.52C241.995 48.848 242.271 49.104 242.623 49.288C242.975 49.472 243.379 49.564 243.835 49.564C244.211 49.564 244.551 49.5 244.855 49.372C245.167 49.244 245.439 49.052 245.671 48.796L246.307 49.54C246.019 49.876 245.659 50.132 245.227 50.308C244.803 50.484 244.327 50.572 243.799 50.572ZM254.153 50.596C253.513 50.596 252.901 50.5 252.317 50.308C251.733 50.108 251.273 49.852 250.937 49.54L251.381 48.604C251.701 48.884 252.109 49.116 252.605 49.3C253.101 49.484 253.617 49.576 254.153 49.576C254.641 49.576 255.037 49.52 255.341 49.408C255.645 49.296 255.869 49.144 256.013 48.952C256.157 48.752 256.229 48.528 256.229 48.28C256.229 47.992 256.133 47.76 255.941 47.584C255.757 47.408 255.513 47.268 255.209 47.164C254.913 47.052 254.585 46.956 254.225 46.876C253.865 46.796 253.501 46.704 253.133 46.6C252.773 46.488 252.441 46.348 252.137 46.18C251.841 46.012 251.601 45.788 251.417 45.508C251.233 45.22 251.141 44.852 251.141 44.404C251.141 43.972 251.253 43.576 251.477 43.216C251.709 42.848 252.061 42.556 252.533 42.34C253.013 42.116 253.621 42.004 254.357 42.004C254.845 42.004 255.329 42.068 255.809 42.196C256.289 42.324 256.705 42.508 257.057 42.748L256.661 43.708C256.301 43.468 255.921 43.296 255.521 43.192C255.121 43.08 254.733 43.024 254.357 43.024C253.885 43.024 253.497 43.084 253.193 43.204C252.889 43.324 252.665 43.484 252.521 43.684C252.385 43.884 252.317 44.108 252.317 44.356C252.317 44.652 252.409 44.888 252.593 45.064C252.785 45.24 253.029 45.38 253.325 45.484C253.629 45.588 253.961 45.684 254.321 45.772C254.681 45.852 255.041 45.944 255.401 46.048C255.769 46.152 256.101 46.288 256.397 46.456C256.701 46.624 256.945 46.848 257.129 47.128C257.313 47.408 257.405 47.768 257.405 48.208C257.405 48.632 257.289 49.028 257.057 49.396C256.825 49.756 256.465 50.048 255.977 50.272C255.497 50.488 254.889 50.596 254.153 50.596ZM261.666 50.572C261.122 50.572 260.642 50.472 260.226 50.272C259.818 50.072 259.498 49.768 259.266 49.36C259.042 48.944 258.93 48.424 258.93 47.8V44.14H260.082V47.668C260.082 48.292 260.23 48.76 260.526 49.072C260.83 49.384 261.254 49.54 261.798 49.54C262.198 49.54 262.546 49.46 262.842 49.3C263.138 49.132 263.366 48.892 263.526 48.58C263.686 48.26 263.766 47.876 263.766 47.428V44.14H264.918V50.5H263.826V48.784L264.006 49.24C263.798 49.664 263.486 49.992 263.07 50.224C262.654 50.456 262.186 50.572 261.666 50.572ZM269.884 50.572C269.236 50.572 268.656 50.432 268.144 50.152C267.64 49.872 267.244 49.488 266.956 49C266.668 48.512 266.524 47.952 266.524 47.32C266.524 46.688 266.668 46.128 266.956 45.64C267.244 45.152 267.64 44.772 268.144 44.5C268.656 44.22 269.236 44.08 269.884 44.08C270.46 44.08 270.972 44.196 271.42 44.428C271.876 44.652 272.228 44.988 272.476 45.436L271.6 46C271.392 45.688 271.136 45.46 270.832 45.316C270.536 45.164 270.216 45.088 269.872 45.088C269.456 45.088 269.084 45.18 268.756 45.364C268.428 45.548 268.168 45.808 267.976 46.144C267.784 46.472 267.688 46.864 267.688 47.32C267.688 47.776 267.784 48.172 267.976 48.508C268.168 48.844 268.428 49.104 268.756 49.288C269.084 49.472 269.456 49.564 269.872 49.564C270.216 49.564 270.536 49.492 270.832 49.348C271.136 49.196 271.392 48.964 271.6 48.652L272.476 49.204C272.228 49.644 271.876 49.984 271.42 50.224C270.972 50.456 270.46 50.572 269.884 50.572ZM276.645 50.572C275.997 50.572 275.417 50.432 274.905 50.152C274.401 49.872 274.005 49.488 273.717 49C273.429 48.512 273.285 47.952 273.285 47.32C273.285 46.688 273.429 46.128 273.717 45.64C274.005 45.152 274.401 44.772 274.905 44.5C275.417 44.22 275.997 44.08 276.645 44.08C277.221 44.08 277.733 44.196 278.181 44.428C278.637 44.652 278.989 44.988 279.237 45.436L278.361 46C278.153 45.688 277.897 45.46 277.593 45.316C277.297 45.164 276.977 45.088 276.633 45.088C276.217 45.088 275.845 45.18 275.517 45.364C275.189 45.548 274.929 45.808 274.737 46.144C274.545 46.472 274.449 46.864 274.449 47.32C274.449 47.776 274.545 48.172 274.737 48.508C274.929 48.844 275.189 49.104 275.517 49.288C275.845 49.472 276.217 49.564 276.633 49.564C276.977 49.564 277.297 49.492 277.593 49.348C277.897 49.196 278.153 48.964 278.361 48.652L279.237 49.204C278.989 49.644 278.637 49.984 278.181 50.224C277.733 50.456 277.221 50.572 276.645 50.572ZM283.467 50.572C282.787 50.572 282.187 50.432 281.667 50.152C281.155 49.872 280.755 49.488 280.467 49C280.187 48.512 280.047 47.952 280.047 47.32C280.047 46.688 280.183 46.128 280.455 45.64C280.735 45.152 281.115 44.772 281.595 44.5C282.083 44.22 282.631 44.08 283.239 44.08C283.855 44.08 284.399 44.216 284.871 44.488C285.343 44.76 285.711 45.144 285.975 45.64C286.247 46.128 286.383 46.7 286.383 47.356C286.383 47.404 286.379 47.46 286.371 47.524C286.371 47.588 286.367 47.648 286.359 47.704H280.947V46.876H285.759L285.291 47.164C285.299 46.756 285.215 46.392 285.039 46.072C284.863 45.752 284.619 45.504 284.307 45.328C284.003 45.144 283.647 45.052 283.239 45.052C282.839 45.052 282.483 45.144 282.171 45.328C281.859 45.504 281.615 45.756 281.439 46.084C281.263 46.404 281.175 46.772 281.175 47.188V47.38C281.175 47.804 281.271 48.184 281.463 48.52C281.663 48.848 281.939 49.104 282.291 49.288C282.643 49.472 283.047 49.564 283.503 49.564C283.879 49.564 284.219 49.5 284.523 49.372C284.835 49.244 285.107 49.052 285.339 48.796L285.975 49.54C285.687 49.876 285.327 50.132 284.895 50.308C284.471 50.484 283.995 50.572 283.467 50.572ZM289.807 50.572C289.279 50.572 288.775 50.5 288.295 50.356C287.823 50.212 287.451 50.036 287.179 49.828L287.659 48.916C287.931 49.1 288.267 49.256 288.667 49.384C289.067 49.512 289.475 49.576 289.891 49.576C290.427 49.576 290.811 49.5 291.043 49.348C291.283 49.196 291.403 48.984 291.403 48.712C291.403 48.512 291.331 48.356 291.187 48.244C291.043 48.132 290.851 48.048 290.611 47.992C290.379 47.936 290.119 47.888 289.831 47.848C289.543 47.8 289.255 47.744 288.967 47.68C288.679 47.608 288.415 47.512 288.175 47.392C287.935 47.264 287.743 47.092 287.599 46.876C287.455 46.652 287.383 46.356 287.383 45.988C287.383 45.604 287.491 45.268 287.707 44.98C287.923 44.692 288.227 44.472 288.619 44.32C289.019 44.16 289.491 44.08 290.035 44.08C290.451 44.08 290.871 44.132 291.295 44.236C291.727 44.332 292.079 44.472 292.351 44.656L291.859 45.568C291.571 45.376 291.271 45.244 290.959 45.172C290.647 45.1 290.335 45.064 290.023 45.064C289.519 45.064 289.143 45.148 288.895 45.316C288.647 45.476 288.523 45.684 288.523 45.94C288.523 46.156 288.595 46.324 288.739 46.444C288.891 46.556 289.083 46.644 289.315 46.708C289.555 46.772 289.819 46.828 290.107 46.876C290.395 46.916 290.683 46.972 290.971 47.044C291.259 47.108 291.519 47.2 291.751 47.32C291.991 47.44 292.183 47.608 292.327 47.824C292.479 48.04 292.555 48.328 292.555 48.688C292.555 49.072 292.443 49.404 292.219 49.684C291.995 49.964 291.679 50.184 291.271 50.344C290.863 50.496 290.375 50.572 289.807 50.572ZM295.818 50.572C295.29 50.572 294.786 50.5 294.306 50.356C293.834 50.212 293.462 50.036 293.19 49.828L293.67 48.916C293.942 49.1 294.278 49.256 294.678 49.384C295.078 49.512 295.486 49.576 295.902 49.576C296.438 49.576 296.822 49.5 297.054 49.348C297.294 49.196 297.414 48.984 297.414 48.712C297.414 48.512 297.342 48.356 297.198 48.244C297.054 48.132 296.862 48.048 296.622 47.992C296.39 47.936 296.13 47.888 295.842 47.848C295.554 47.8 295.266 47.744 294.978 47.68C294.69 47.608 294.426 47.512 294.186 47.392C293.946 47.264 293.754 47.092 293.61 46.876C293.466 46.652 293.394 46.356 293.394 45.988C293.394 45.604 293.502 45.268 293.718 44.98C293.934 44.692 294.238 44.472 294.63 44.32C295.03 44.16 295.502 44.08 296.046 44.08C296.462 44.08 296.882 44.132 297.306 44.236C297.738 44.332 298.09 44.472 298.362 44.656L297.87 45.568C297.582 45.376 297.282 45.244 296.97 45.172C296.658 45.1 296.346 45.064 296.034 45.064C295.53 45.064 295.154 45.148 294.906 45.316C294.658 45.476 294.534 45.684 294.534 45.94C294.534 46.156 294.606 46.324 294.75 46.444C294.902 46.556 295.094 46.644 295.326 46.708C295.566 46.772 295.83 46.828 296.118 46.876C296.406 46.916 296.694 46.972 296.982 47.044C297.27 47.108 297.53 47.2 297.762 47.32C298.002 47.44 298.194 47.608 298.338 47.824C298.49 48.04 298.566 48.328 298.566 48.688C298.566 49.072 298.454 49.404 298.23 49.684C298.006 49.964 297.69 50.184 297.282 50.344C296.874 50.496 296.386 50.572 295.818 50.572Z" fill="#6C757D"/>
</svg>
